<?xml version="1.0" encoding="UTF-8"?>
<svg version="1.1" xmlns="http://www.w3.org/2000/svg" width="800" height="800">
<path d="M0 0 C181.5 0 363 0 550 0 C550 181.5 550 363 550 550 C368.5 550 187 550 0 550 C0 368.5 0 187 0 0 Z M50 50 C50 198.5 50 347 50 500 C198.5 500 347 500 500 500 C500 351.5 500 203 500 50 C351.5 50 203 50 50 50 Z " fill="#FFFFFF" transform="translate(125,125)"/>
<path d="M0 0 C1.85239784 -0.01170032 3.70477154 -0.02862083 5.55706787 -0.05126953 C27.88334857 -0.31172102 46.42209656 3.36192254 65.00912476 16.48217773 C76.9801576 28.18718762 81.4996099 42.8679682 81.82162476 59.23217773 C81.09291827 77.1583574 72.61896446 92.37949142 59.85678101 104.65014648 C52.60156223 110.82221805 42.70796485 118.23217773 32.82162476 118.23217773 C48.73796993 148.33951902 75.46968332 195.16689905 108.82162476 208.23217773 C112.50984752 209.1687981 116.03833934 209.73437702 119.82162476 210.23217773 C119.82162476 213.86217773 119.82162476 217.49217773 119.82162476 221.23217773 C106.5342065 225.85871612 89.63197576 224.82282225 76.82162476 219.23217773 C75.97084351 218.90475586 75.12006226 218.57733398 74.24349976 218.23999023 C59.88964978 212.05609889 50.64636051 198.49442623 41.82162476 186.23217773 C41.25153687 185.44633301 40.68144897 184.66048828 40.09408569 183.85083008 C33.49345312 174.72013929 27.20605722 165.42674813 21.25912476 155.85717773 C20.71731567 155.00446289 20.17550659 154.15174805 19.61727905 153.27319336 C16.17750582 147.76790913 13.35447105 142.23912595 10.86605835 136.24047852 C7.17003661 129.12196692 7.17003661 129.12196692 1.82162476 123.23217773 C-2.69175275 121.92922947 -6.96507532 121.98810159 -11.63540649 122.12280273 C-12.84249268 122.11909668 -14.04957886 122.11539063 -15.29324341 122.11157227 C-18.25794135 122.1086391 -21.21501654 122.15005416 -24.17837524 122.23217773 C-24.09362422 130.66495786 -23.9986096 139.09753586 -23.89084816 147.53005028 C-23.84111351 151.44651187 -23.79478349 155.36294942 -23.75650024 159.27954102 C-23.71935644 163.06629079 -23.67292201 166.85282751 -23.62031174 170.63939285 C-23.60192101 172.07687225 -23.58675791 173.51439705 -23.57503128 174.95194626 C-23.99696077 189.98739369 -23.99696077 189.98739369 -18.17837524 203.23217773 C-12.50474772 206.15132646 -7.02778546 207.09138071 -0.74087524 207.91967773 C0.64261108 208.11400391 0.64261108 208.11400391 2.05404663 208.31225586 C4.3086956 208.62767307 6.56500908 208.93115332 8.82162476 209.23217773 C8.82162476 213.19217773 8.82162476 217.15217773 8.82162476 221.23217773 C-20.21837524 221.23217773 -49.25837524 221.23217773 -79.17837524 221.23217773 C-79.17837524 217.27217773 -79.17837524 213.31217773 -79.17837524 209.23217773 C-78.18837524 209.07362305 -77.19837524 208.91506836 -76.17837524 208.75170898 C-65.2200054 207.11458778 -65.2200054 207.11458778 -56.17837524 201.23217773 C-52.18564794 193.24706028 -52.7522085 184.1485973 -52.79019165 175.46044922 C-52.78611947 173.88738645 -52.78077399 172.31432654 -52.77426147 170.74127197 C-52.76065994 166.49545526 -52.7658564 162.24985882 -52.77539873 158.00403857 C-52.78303132 153.54663705 -52.77593989 149.08925351 -52.77124023 144.6318512 C-52.76579369 137.14971556 -52.77294591 129.66766897 -52.78726196 122.18554688 C-52.80359233 113.55127882 -52.79829274 104.91722328 -52.78178275 96.28296036 C-52.76814357 88.85081402 -52.76625991 81.41873143 -52.77409875 73.98657662 C-52.77876115 69.5558954 -52.77943962 65.1253139 -52.76948929 60.69463921 C-52.76078618 56.52894069 -52.76690218 52.36351472 -52.78417206 48.19784546 C-52.78811886 46.67453017 -52.78703402 45.15119171 -52.78038406 43.62788582 C-52.7176102 30.65038405 -52.7176102 30.65038405 -57.74087524 18.85717773 C-63.90920677 14.74495672 -72.02367006 13.73235785 -79.17837524 12.23217773 C-79.17837524 8.60217773 -79.17837524 4.97217773 -79.17837524 1.23217773 C-25.0585437 0.13264477 -25.0585437 0.13264477 0 0 Z M-24.17837524 18.23217773 C-24.17837524 46.94217773 -24.17837524 75.65217773 -24.17837524 105.23217773 C8.30915311 107.60949041 8.30915311 107.60949041 37.13412476 94.10717773 C46.70168772 85.1188618 50.04590782 73.54877504 50.78646851 60.86499023 C50.90289672 48.8340752 47.47086291 38.61441804 39.86849976 29.30639648 C32.19645443 21.531862 20.7679208 17.46620843 9.98104858 17.1027832 C8.49693175 17.09623035 7.01278197 17.09538812 5.52865601 17.09936523 C4.34779671 17.09793015 4.34779671 17.09793015 3.14308167 17.09646606 C1.48653076 17.09578794 -0.17002286 17.09761653 -1.8265686 17.10180664 C-4.36772572 17.10718165 -6.90870781 17.10183824 -9.44985962 17.09545898 C-11.06118813 17.09611941 -12.67251654 17.09739984 -14.28384399 17.09936523 C-15.04529221 17.097341 -15.80674042 17.09531677 -16.59126282 17.0932312 C-20.51325832 17.03185632 -20.51325832 17.03185632 -24.17837524 18.23217773 Z " fill="#FFFFFF" transform="translate(329.1783752441406,326.767822265625)"/>
<path d="M0 0 C1.44463623 0.01135986 1.44463623 0.01135986 2.91845703 0.02294922 C15.07656309 0.3039785 24.19398183 3.58383695 32.875 12.16796875 C36.16539444 15.75101847 37.70791784 18.72272197 39.125 23.4375 C37.38079087 24.75768588 35.62939909 26.06838602 33.875 27.375 C32.41320312 28.47134766 32.41320312 28.47134766 30.921875 29.58984375 C28.4982119 31.19095079 26.9492508 32.01386238 24.125 32.4375 C23.73570312 31.84582031 23.34640625 31.25414062 22.9453125 30.64453125 C18.60454982 24.51345401 14.43912876 20.56358193 7.125 18.4375 C-0.28494075 17.34806764 -6.57264766 17.74877229 -12.9375 21.87890625 C-17.62608335 25.65056907 -21.07542306 29.64376273 -22.875 35.4375 C-23.19469131 38.97005147 -23.20296413 42.49372805 -23.2109375 46.0390625 C-23.2175943 47.07130951 -23.2242511 48.10355652 -23.23110962 49.16708374 C-23.24122348 51.35079166 -23.24592703 53.5345304 -23.24560547 55.71826172 C-23.24995749 59.03015361 -23.28623314 62.34068931 -23.32421875 65.65234375 C-23.33009167 67.78124548 -23.33405788 69.9101535 -23.3359375 72.0390625 C-23.35030853 73.01654449 -23.36467957 73.99402649 -23.37948608 75.00112915 C-23.32589615 83.22284269 -21.71165159 90.9462365 -16.4375 97.4375 C-10.74332463 101.88173443 -5.87991346 103.98040587 1.4296875 103.1875 C6.55126885 102.22181463 9.94627415 100.49510428 14.125 97.4375 C14.785 97.4375 15.445 97.4375 16.125 97.4375 C16.41375 96.85871094 16.7025 96.27992188 17 95.68359375 C17.69579087 94.29442796 18.40207975 92.91039908 19.125 91.53515625 C22.34085346 84.99039199 23.21367945 78.65212105 24.125 71.4375 C16.865 71.4375 9.605 71.4375 2.125 71.4375 C2.125 66.4875 2.125 61.5375 2.125 56.4375 C14.995 56.4375 27.865 56.4375 41.125 56.4375 C41.186875 61.47 41.24875 66.5025 41.3125 71.6875 C41.35346802 74.02956543 41.35346802 74.02956543 41.39526367 76.41894531 C41.47480274 89.89440281 39.75745495 100.88685498 30.56640625 111.18359375 C22.04756478 119.3755732 10.18941473 120.62406426 -1.0625 120.6875 C-1.95775391 120.708125 -2.85300781 120.72875 -3.77539062 120.75 C-14.282599 120.81069146 -23.48996016 117.84958929 -31.875 111.4375 C-38.95544275 104.23550458 -42.95558712 94.67763476 -43.05200195 84.65014648 C-43.06483719 83.4847081 -43.07767242 82.31926971 -43.09089661 81.11851501 C-43.09828354 79.861241 -43.10567047 78.60396698 -43.11328125 77.30859375 C-43.121353 76.00857925 -43.12942474 74.70856476 -43.13774109 73.36915588 C-43.15274712 70.61451348 -43.1625929 67.85989661 -43.17016602 65.10522461 C-43.18117927 61.6041202 -43.21552715 58.10366034 -43.25533772 54.60278225 C-43.28804164 51.23391432 -43.2923037 47.86510797 -43.30078125 44.49609375 C-43.31828934 43.25298935 -43.33579742 42.00988495 -43.35383606 40.72911072 C-43.32724169 29.93431556 -41.0207596 20.89734799 -33.984375 12.5078125 C-24.44808642 3.14812186 -13.05954069 -0.1444183 0 0 Z " fill="#FFFFFF" transform="translate(478.875,249.5625)"/>
</svg>
